# AST/ASF file generated using VICON BodyLanguage
# -----------------------------------------------
:version 1.10
:name VICON
:units
  mass 1.0
  length 0.45
  angle deg
:documentation
   .ast/.asf automatically generated from VICON data using
   VICON BodyBuilder and BodyLanguage model FoxedUp or BRILLIANT.MOD
:root
   order TX TY TZ RX RY RZ
   axis XYZ
   position 0 0 0  
   orientation 0 0 0 
:bonedata
  begin
     id 1 
     name lhipjoint
     direction 0.734343 -0.627749 0.258209 
     length 2.5437 
     axis 0 0 0  XYZ
  end
  begin
     id 2 
     name lfemur
     direction 0.34202 -0.939693 0  
     length 6.7391  
     axis 0 0 20  XYZ
    dof rx ry rz
    limits (-160.0 20.0)
           (-70.0 70.0)
           (-60.0 70.0)
  end
  begin
     id 3 
     name ltibia
     direction 0.34202 -0.939693 0   
     length 7.21536   
     axis 0 0 20   XYZ
    dof rx
    limits (-10.0 170.0)
  end
  begin
     id 4 
     name lfoot
     direction 0.0489572 -0.134509 0.989702   
     length 1.61313   
     axis -90 7.62852e-016 20   XYZ
    dof rx rz
    limits (-45.0 90.0)
           (-70.0 20.0)
  end
  begin
     id 5 
     name ltoes
     direction 1.53451e-011 -4.21692e-011 1   
     length 0.823104   
     axis -90 7.62852e-016 20   XYZ
    dof rx
    limits (-90.0 20.0)
  end
  begin
     id 6 
     name rhipjoint
     direction -0.746398 -0.615468 0.253157   
     length 2.59446  
     axis 0 0 0  XYZ 
  end
  begin
     id 7 
     name rfemur
     direction -0.34202 -0.939693 0   
     length 6.7075   
     axis 0 0 -20   XYZ
    dof rx ry rz
    limits (-160.0 20.0)
           (-70.0 70.0)
           (-70.0 60.0)
  end
  begin
     id 8 
     name rtibia
     direction -0.34202 -0.939693 0   
     length 7.27262   
     axis 0 0 -20   XYZ
    dof rx
    limits (-10.0 170.0)
 end
 begin
     id 9 
     name rfoot
     direction -0.0455203 -0.125066 0.991104   
     length 1.91095  
     axis -90 -7.62852e-016 -20   XYZ
    dof rx rz
    limits (-45.0 90.0)
           (-20.0 70.0)
  end
  begin
     id 10 
     name rtoes
     direction -1.53601e-011 -4.21913e-011 1   
     length 0.969037   
     axis -90 -7.62852e-016 -20   XYZ
    dof rx
    limits (-90.0 20.0)
  end
  begin
     id 11 
     name lowerback
     direction 0.0181546 0.999122 -0.0377542   
     length 1.99916   
     axis 0 0 0   XYZ
    dof rx ry rz
    limits (-20.0 45.0)
           (-30.0 30.0)
           (-30.0 30.0)
  end
  begin
     id 12 
     name upperback
     direction 0.0203486 0.99589 0.0882534   
     length 1.951   
     axis 0 0 0   XYZ
    dof rx ry rz
    limits (-20.0 45.0)
           (-30.0 30.0)
           (-30.0 30.0)
  end
  begin
     id 13 
     name thorax
     direction 0.0131685 0.994241 0.106355   
     length 1.97461   
     axis 0 0 0   XYZ
    dof rx ry rz
    limits (-20.0 45.0)
           (-30.0 30.0)
           (-30.0 30.0)
  end
  begin
     id 14 
     name lowerneck
     direction -0.0281395 0.999325 0.023617   
     length 1.7959   
     axis 0 0 0   XYZ
    dof rx ry rz
    limits (-20.0 45.0)
           (-30.0 30.0)
           (-30.0 30.0)
  end
  begin
     id 15 
     name upperneck
     direction 0.0288721 0.991984 -0.123019   
     length 1.79917   
     axis 0 0 0   XYZ
    dof rx ry rz
    limits (-20.0 45.0)
           (-30.0 30.0)
           (-30.0 30.0)
  end
  begin
     id 16
     name head
     direction 0.0133797 0.998944 -0.0439492  
     length 1.80902  
     axis 0 0 0   XYZ
    dof rx ry rz
    limits (-20.0 45.0)
           (-30.0 30.0)
           (-30.0 30.0)
  end
  begin
     id 17 
     name lclavicle
     direction 0.919195 0.377107 0.113449  
     length 3.17815  
     axis 0 0 0   XYZ
    dof ry rz
    limits (-20.0 10.0)
           (0.0 20.0)
  end
  begin
     id 18 
     name lhumerus
     direction 1 -4.48959e-011 2.13129e-027   
     length 4.84137   
     axis 180 -30 -90   XYZ
    dof rx ry rz
    limits (-60.0 90.0)
           (-90.0 90.0)
           (-90.0 90.0)
  end
  begin
     id 19
     name lradius
     direction 1 -4.48957e-011 -6.30627e-028   
     length 3.2452   
     axis 180 -30 -90   XYZ
    dof rx
    limits (-10.0 170.0)
  end
  begin
     id 20
     name lwrist
     direction 1 -4.4901e-011 9.13299e-027   
     length 1.6226   
     axis -6.84618e-015 90 90   XYZ
    dof ry
    limits (-180.0 0.0)
 end
  begin
     id 21 
     name lhand
     direction 1 -4.48816e-011 1.82293e-026   
     length 0.521221   
     axis -1.16502e-014 90 90   XYZ
    dof rx rz
    limits (-90.0 90.0)
           (-45.0 45.0)
  end
  begin
     id 22 
     name lfingers
     direction 1 -4.49108e-011 3.65687e-026   
     length 0.420221   
     axis -2.33008e-014 90 90   XYZ
    dof rx
    limits (0.0 90.0)
  end
  begin
     id 23
     name lthumb
     direction 0.707107 -6.34943e-011 0.707107   
     length 0.603356   
     axis -90 45 5.69224e-014   XYZ
    dof rx rz
    limits (-45.0 45.0)
           (-45.0 45.0)
  end
  begin
     id 24 
     name rclavicle
     direction -0.90847 0.38596 0.160368   
     length 3.12973  
     axis 0 0 0   XYZ 
    dof ry rz
    limits (-10.0 20.0)
           (-20.0 0.0)
  end
  begin
     id 25 
     name rhumerus
     direction -1 -4.48974e-011 4.47268e-028  
     length 4.72284   
     axis 180 30 90   XYZ
    dof rx ry rz
    limits (-90.0 60.0)
           (-90.0 90.0)
           (-90.0 90.0)
  end
  begin
     id 26 
     name rradius
     direction -1 -4.48969e-011 3.43203e-027   
     length 3.23459   
     axis 180 30 90   XYZ
    dof rx
    limits (-10.0 170.0)
  end
  begin
     id 27 
     name rwrist
     direction -1 -4.48969e-011 9.12911e-027   
     length 1.6173   
     axis -6.84618e-015 -90 -90   XYZ
    dof ry
    limits (-180.0 0.0)
  end
  begin
     id 28
     name rhand
     direction -1 -4.49194e-011 1.83006e-026   
     length 0.307416   
     axis -1.16502e-014 -90 -90   XYZ
    dof rx rz
    limits (-90.0 90.0)
           (-45.0 45.0)
  end
  begin
     id 29
     name rfingers
     direction -1 -4.48423e-011 3.63103e-026   
     length 0.247847   
     axis -2.33008e-014 -90 -90   XYZ
    dof rx
    limits (0.0 90.0)
  end
  begin
     id 30
     name rthumb
     direction -0.707107 -6.34802e-011 0.707107   
     length 0.35586   
     axis -90 -45 -5.69224e-014   XYZ
    dof rx rz
    limits (-45.0 45.0)
           (-45.0 45.0)
  end
:hierarchy
  begin
    root lhipjoint rhipjoint lowerback
    lhipjoint lfemur
    lfemur ltibia
    ltibia lfoot
    lfoot ltoes
    rhipjoint rfemur
    rfemur rtibia
    rtibia rfoot
    rfoot rtoes
    lowerback upperback
    upperback thorax
    thorax lowerneck lclavicle rclavicle
    lowerneck upperneck
    upperneck head
    lclavicle lhumerus
    lhumerus lradius
    lradius lwrist
    lwrist lhand lthumb
    lhand lfingers
    rclavicle rhumerus
    rhumerus rradius
    rradius rwrist
    rwrist rhand rthumb
    rhand rfingers
  end

#!OML:ASF H:\Terrain\Patient Classification 1\Animal1\Tuesday\Animal1.ASF
:FULLY-SPECIFIED
:DEGREES
1192
root 23.2402 16.2957 6.75442 -710.177 -47.2119 -345.436
lowerback 28.1516 2.12231 -0.660539
upperback 1.98182 2.58138 1.00674
thorax -13.5414 1.1935 0.55146
lowerneck -5.96755 -2.42571 -8.11539
upperneck -19.2378 -2.07696 10.0123
head -4.53289 -1.16758 4.57144
rclavicle -6.99722e-014 1.27222e-014
rhumerus -56.8975 1.81502 -92.3799
rradius 31.5982
rwrist -68.2836
rhand 23.9817 -361.13
rfingers 7.12502
rthumb 48.2247 -23.2372
lclavicle -6.99722e-014 1.27222e-014
lhumerus -50.4184 10.5409 84.332
lradius 28.5278
lwrist 1.74676
lhand 63.2093 65.1911
lfingers 7.12502
lthumb 74.9781 21.0319
rfemur -46.0274 -4.05957 37.8702
rtibia 54.3504
rfoot 3.18327 0.888835
rtoes -18.7817
lfemur -65.8455 -13.5714 -9.87194
ltibia 68.913
lfoot 18.0136 -1.51163
ltoes 19.769
1193
root 23.1095 16.3083 6.85569 -710.173 -47.9615 -345.665
lowerback 28.113 2.25174 -0.471544
upperback 2.02796 2.80988 1.04962
thorax -13.464 1.28479 0.405088
lowerneck -5.93231 -2.64591 -8.1084
upperneck -19.3175 -2.36596 10.1451
head -4.53234 -1.32275 4.61818
rclavicle 2.38542e-014 -3.97569e-014
rhumerus -56.4374 0.603931 -91.5735
rradius 30.7744
rwrist -66.5568
rhand 23.1205 -360.578
rfingers 7.12502
rthumb 47.4302 -23.0522
lclavicle 2.38542e-014 -3.97569e-014
lhumerus -50.3586 10.5867 84.183
lradius 28.7914
lwrist 1.52838
lhand 63.5509 65.2087
lfingers 7.12502
lthumb 74.9793 19.7765
rfemur -44.7196 -3.44947 37.8266
rtibia 53.8542
rfoot 2.62411 0.755392
rtoes -20.7279
lfemur -66.7167 -13.3557 -9.32045
ltibia 66.3074
lfoot 19.1437 -2.71659
ltoes 22.9336
1194
root 22.9783 16.3273 6.95524 -710.171 -48.41 -345.828
lowerback 28.2555 2.18201 -0.101682
upperback 1.91211 2.83984 1.06172
thorax -13.66 1.27487 0.188162
lowerneck -6.09946 -2.85165 -8.05624
upperneck -19.0175 -2.63677 10.2765
head -4.38429 -1.4624 4.64132
rclavicle 3.18055e-015 1.90833e-014
rhumerus -56.8504 0.724789 -92.1216
rradius 31.2581
rwrist -66.0278
rhand 21.7576 -359.78
rfingers 7.12502
rthumb 46.1688 -22.8038
lclavicle 3.18055e-015 1.90833e-014
lhumerus -50.5249 10.1322 84.2978
lradius 29.0172
lwrist 1.90145
lhand 63.7018 65.8216
lfingers 7.12502
lthumb 74.9774 19.8271
rfemur -43.5962 -3.07738 37.7887
rtibia 53.4205
rfoot 2.44848 0.885324
rtoes -19.9457
lfemur -67.4616 -13.1583 -9.18517
ltibia 63.3955
lfoot 19.7601 -5.29244
ltoes 21.5027
1195
root 22.8488 16.3529 7.05346 -710.562 -49.0139 -345.488
lowerback 28.129 2.03469 0.11254
upperback 1.98199 2.6837 0.864805
thorax -13.4863 1.1847 -0.0964108
lowerneck -6.13761 -2.96856 -7.93288
upperneck -19.0536 -2.78598 10.4088
head -4.37275 -1.55525 4.6639
rclavicle -7.15625e-014 5.56597e-014
rhumerus -57.0243 1.23724 -93.1374
rradius 31.7529
rwrist -65.9555
rhand 21.2894 -358.336
rfingers 7.12502
rthumb 45.7343 -21.5405
lclavicle -7.15625e-014 5.56597e-014
lhumerus -50.2072 9.46724 84.4085
lradius 29.0607
lwrist 2.46997
lhand 64.5367 66.5051
lfingers 7.12502
lthumb 74.9403 17.4063
rfemur -42.5746 -2.80511 37.403
rtibia 53.0488
rfoot 2.66277 1.02427
rtoes -17.4779
lfemur -67.9201 -12.9283 -9.55897
ltibia 60.1686
lfoot 20.4948 -7.93219
ltoes 16.7708
1196
root 22.7127 16.389 7.15077 -711.85 -49.9857 -344.211
lowerback 28.2513 2.18074 -0.563923
upperback 2.06017 2.62375 0.640192
thorax -13.4785 1.18797 0.0562269
lowerneck -6.05474 -3.09496 -8.01432
upperneck -19.1834 -2.95024 10.5265
head -4.4055 -1.64449 4.72186
rclavicle 4.77083e-015 -7.79236e-014
rhumerus -57.0955 0.934558 -92.4191
rradius 32.1867
rwrist -67.435
rhand 24.8126 -361.396
rfingers 7.12502
rthumb 48.989 -23.1342
lclavicle 4.77083e-015 -7.79236e-014
lhumerus -50.1435 9.92537 84.2003
lradius 29.1333
lwrist 1.79972
lhand 65.1552 66.9819
lfingers 7.12502
lthumb 74.8838 15.5986
rfemur -41.2897 -2.27723 36.31
rtibia 52.6212
rfoot 2.78345 1.29445
rtoes -18.8204
lfemur -67.7736 -12.5735 -10.7516
ltibia 56.706
lfoot 21.8029 -8.79239
ltoes 17.5833
1197
root 22.5635 16.4356 7.24563 -712.784 -50.9104 -343.465
lowerback 28.4393 2.33178 -1.0865
upperback 2.14574 2.63465 0.555262
thorax -13.4978 1.2178 0.251928
lowerneck -6.21221 -3.20645 -8.17034
upperneck -19.0996 -3.05549 10.8691
head -4.32992 -1.7035 4.85291
rclavicle -1.11319e-014 -1.90833e-014
rhumerus -57.3042 1.25738 -92.6102
rradius 32.8089
rwrist -68.7268
rhand 24.4457 -362.422
rfingers 7.12502
rthumb 48.6517 -24.325
lclavicle -1.11319e-014 -1.90833e-014
lhumerus -50.0858 10.0058 84.2397
lradius 29.3901
lwrist 1.83226
lhand 63.3663 67.1675
lfingers 7.12502
lthumb 74.9796 22.4235
rfemur -39.7079 -1.43391 35.5533
rtibia 51.969
rfoot 3.06903 1.25074
rtoes -18.8879
lfemur -67.3828 -12.1553 -11.6035
ltibia 53.0629
lfoot 23.6002 -8.1929
ltoes 27.926
1198
root 22.4055 16.4951 7.3459 -712.818 -51.6922 -343.815
lowerback 28.3394 2.30852 -0.820848
upperback 2.29526 2.69018 0.62106
thorax -13.2599 1.22749 0.15948
lowerneck -6.37578 -3.25995 -8.48954
upperneck -18.9814 -3.04918 11.4253
head -4.24282 -1.70574 5.0786
rclavicle 9.54166e-015 -2.38542e-014
rhumerus -57.3247 1.53161 -92.8906
rradius 32.9755
rwrist -69.1711
rhand 24.2845 -361.703
rfingers 7.12502
rthumb 48.5034 -23.677
lclavicle 9.54166e-015 -2.38542e-014
lhumerus -50.0075 9.56565 84.69
lradius 29.6671
lwrist 2.64078
lhand 61.0327 66.8424
lfingers 7.12502
lthumb 74.7932 30.7207
rfemur -38.0291 -0.730295 35.5478
rtibia 51.1752
rfoot 3.57285 1.03261
rtoes -14.9513
lfemur -67.0347 -11.8895 -11.5987
ltibia 49.5911
lfoot 25.6828 -7.50071
ltoes 34.4692
1199
root 22.2395 16.5873 7.4501 -714.112 -52.6462 -342.88
lowerback 28.1946 2.39846 -1.13566
upperback 2.56879 2.67177 0.435727
thorax -12.866 1.2275 0.146029
lowerneck -6.25202 -3.28141 -8.72728
upperneck -19.1331 -3.02038 11.8787
head -4.29186 -1.70745 5.27237
rclavicle 6.04305e-014 1.11319e-014
rhumerus -57.3468 1.74178 -93.0802
rradius 33.2396
rwrist -69.613
rhand 25.1106 -361.817
rfingers 7.12502
rthumb 49.2627 -23.4185
lclavicle 6.04305e-014 1.11319e-014
lhumerus -49.8573 9.19847 84.9719
lradius 29.7725
lwrist 2.83123
lhand 60.9954 66.3051
lfingers 7.12502
lthumb 74.7874 30.3188
rfemur -36.1477 -0.558149 34.7923
rtibia 50.2019
rfoot 4.07507 1.7611
rtoes -16.8437
lfemur -66.0553 -11.9077 -12.5673
ltibia 46.4205
lfoot 27.205 -7.77702
ltoes 32.5365
1200
root 22.074 16.6055 7.55313 -714.491 -53.8169 -342.515
lowerback 27.8282 2.61604 -1.5815
upperback 2.61486 2.81735 0.413694
thorax -12.6419 1.31753 0.334706
lowerneck -5.82889 -3.26408 -8.75977
upperneck -19.5329 -2.98019 12.1076
head -4.47862 -1.71773 5.37391
rclavicle 6.36111e-015 4.77083e-014
rhumerus -57.4554 2.00902 -93.3158
rradius 33.5714
rwrist -69.8059
rhand 33.2797 -359.559
rfingers 7.12502
rthumb 56.6289 -16.45
lclavicle 6.36111e-015 4.77083e-014
lhumerus -49.8441 9.2799 84.8052
lradius 29.8872
lwrist 2.03806
lhand 62.5939 65.6907
lfingers 7.12502
lthumb 74.9568 23.8217
rfemur -35.0136 0.102574 34.6162
rtibia 49.399
rfoot 4.75728 3.13247
rtoes -22.8883
lfemur -65.9021 -11.3332 -13.2125
ltibia 43.9891
lfoot 28.6709 -7.90791
ltoes 26.9224
1201
root 21.9132 16.6008 7.63677 -712.285 -54.927 -344.579
lowerback 27.112 2.71534 -0.932932
upperback 2.49048 3.20859 0.790146
thorax -12.4042 1.47836 0.265925
lowerneck -5.46312 -3.34016 -8.66699
upperneck -19.9932 -3.08995 12.1607
head -4.66807 -1.80289 5.39991
rclavicle 1.59028e-014 6.67916e-014
rhumerus -57.4611 2.08825 -93.4023
rradius 33.9024
rwrist -69.257
rhand 34.9861 -358.134
rfingers 7.12502
rthumb 58.1251 -13.7427
lclavicle 1.59028e-014 6.67916e-014
lhumerus -49.7283 9.55433 84.6374
lradius 29.9235
lwrist 1.25432
lhand 63.7374 65.5288
lfingers 7.12502
lthumb 74.9768 19.4019
rfemur -34.5886 1.50529 35.9363
rtibia 48.7127
rfoot 5.84687 4.07896
rtoes -24.9924
lfemur -66.6862 -10.2473 -12.1777
ltibia 42.0948
lfoot 30.6311 -5.56081
ltoes 25.5147
1202
root 21.7596 16.6141 7.73614 -711.207 -55.6806 -345.882
lowerback 26.7747 2.64365 -0.115961
upperback 2.60421 3.37247 0.954699
thorax -12.0586 1.51675 -0.0603915
lowerneck -5.32851 -3.53406 -8.46798
upperneck -20.3675 -3.3542 12.2126
head -4.77931 -1.96676 5.40111
rclavicle 9.06458e-014 -1.09729e-013
rhumerus -57.1478 2.05798 -93.5158
rradius 34.0145
rwrist -68.8376
rhand 30.9499 -358.847
rfingers 7.12502
rthumb 54.5589 -17.3002
lclavicle 9.06458e-014 -1.09729e-013
lhumerus -49.3607 9.63534 84.6729
lradius 29.871
lwrist 0.982405
lhand 63.5261 65.5931
lfingers 7.12502
lthumb 74.9795 20.2534
rfemur -33.8012 2.20592 36.6031
rtibia 48.4124
rfoot 6.55441 4.57118
rtoes -25.6192
lfemur -66.76 -10.0739 -11.4908
ltibia 40.6315
lfoot 31.9181 -1.22093
ltoes 28.9282
1203
root 21.6136 16.6533 7.83795 -711.748 -56.1716 -345.768
lowerback 26.9323 2.47142 0.238072
upperback 2.8039 3.2398 0.961071
thorax -11.89 1.43542 -0.208422
lowerneck -5.16343 -3.61761 -8.65557
upperneck -20.6339 -3.42467 12.5595
head -4.86414 -2.02216 5.56092
rclavicle 3.49861e-014 -3.18055e-015
rhumerus -56.8447 2.45339 -93.9055
rradius 34.0665
rwrist -69.1103
rhand 21.1361 -360.076
rfingers 7.12502
rthumb 45.592 -23.3386
lclavicle 3.49861e-014 -3.18055e-015
lhumerus -49.1662 9.61037 84.9041
lradius 30.0041
lwrist 1.08245
lhand 63.4833 65.5219
lfingers 7.12502
lthumb 74.9797 20.3416
rfemur -32.7026 2.08406 36.3664
rtibia 48.3226
rfoot 7.23958 5.42586
rtoes -26.2894
lfemur -66.1151 -10.6498 -11.575
ltibia 39.3567
lfoot 33.2803 2.12803
ltoes 33.8402
1204
root 21.4538 16.7135 7.9314 -712.886 -56.298 -344.73
lowerback 26.9149 2.08761 -0.0496194
upperback 2.93538 2.66699 1.07136
thorax -11.7465 1.1904 0.292528
lowerneck -5.14756 -3.49945 -9.51321
upperneck -20.5404 -3.2 13.0643
head -4.82717 -1.88116 5.87016
rclavicle -6.83819e-014 -3.81667e-014
rhumerus -56.8492 3.45841 -94.0538
rradius 34.2727
rwrist -69.5324
rhand 26.4692 -359.843
rfingers 7.12502
rthumb 50.5065 -20.7955
lclavicle -6.83819e-014 -3.81667e-014
lhumerus -49.2717 10.3521 85.1336
lradius 30.3988
lwrist 1.37812
lhand 63.782 66.0988
lfingers 7.12502
lthumb 74.9758 19.8058
rfemur -31.95 1.40827 35.6305
rtibia 48.4431
rfoot 8.26632 6.5528
rtoes -25.3422
lfemur -65.4077 -11.4842 -12.2964
ltibia 38.1493
lfoot 35.2392 2.53757
ltoes 35.8034
1205
root 21.2701 16.7647 8.04352 -713.737 -57.3662 -344.027
lowerback 26.495 2.32033 -0.255678
upperback 3.15063 2.87475 0.888888
thorax -11.2797 1.29117 0.147145
lowerneck -5.77349 -3.66502 -9.01555
upperneck -19.8831 -3.46824 12.7779
head -4.51199 -2.00807 5.65099
rclavicle -8.26944e-014 -3.18055e-014
rhumerus -56.6655 2.88401 -93.8497
rradius 34.2932
rwrist -69.9965
rhand 28.6807 -359.926
rfingers 7.12502
rthumb 52.517 -19.7191
lclavicle -8.26944e-014 -3.18055e-014
lhumerus -49.1519 9.94589 85.2854
lradius 30.8471
lwrist 1.93834
lhand 63.2909 67.0859
lfingers 7.12502
lthumb 74.9791 22.6229
rfemur -31.2378 1.48874 35.0592
rtibia 48.5804
rfoot 9.52745 7.87207
rtoes -24.5546
lfemur -64.458 -11.7614 -12.531
ltibia 37.2323
lfoot 36.7019 1.32674
ltoes 32.7849
1206
root 21.0893 16.8167 8.15985 -715.255 -58.7778 -342.853
lowerback 26.2687 2.51708 -0.812038
upperback 3.39203 2.93573 0.698819
thorax -10.9028 1.33648 0.244225
lowerneck -6.15751 -3.59486 -8.70759
upperneck -19.313 -3.42704 12.4793
head -4.2972 -1.97511 5.47187
rclavicle 3.33958e-014 -2.8625e-014
rhumerus -56.6919 3.43316 -94.2408
rradius 34.6523
rwrist -71.1692
rhand 27.4525 -359.971
rfingers 7.12502
rthumb 51.4027 -20.4247
lclavicle 3.33958e-014 -2.8625e-014
lhumerus -49.2668 10.3714 85.1136
lradius 31.1956
lwrist 2.33043
lhand 62.5386 67.6204
lfingers 7.12502
lthumb 74.9536 25.957
rfemur -30.4013 1.51236 34.2237
rtibia 48.85
rfoot 10.7487 9.79871
rtoes -24.9066
lfemur -63.1049 -11.9189 -13.1191
ltibia 36.8494
lfoot 38.1569 -0.22457
ltoes 30.9581
